<svg width="20" height="21" viewBox="0 0 20 21" fill="none" xmlns="http://www.w3.org/2000/svg">
<path d="M12.025 16.1833C12.1834 16.1833 12.3417 16.125 12.4667 16L17.525 10.9416C17.7667 10.7 17.7667 10.3 17.525 10.0583L12.4667 4.99998C12.225 4.75831 11.825 4.75831 11.5834 4.99998C11.3417 5.24164 11.3417 5.64164 11.5834 5.88331L16.2 10.5L11.5834 15.1166C11.3417 15.3583 11.3417 15.7583 11.5834 16C11.7 16.125 11.8667 16.1833 12.025 16.1833Z" fill="#999999"/>
<path d="M2.91665 11.125H16.9417C17.2833 11.125 17.5667 10.8417 17.5667 10.5C17.5667 10.1583 17.2833 9.875 16.9417 9.875H2.91665C2.57498 9.875 2.29165 10.1583 2.29165 10.5C2.29165 10.8417 2.57498 11.125 2.91665 11.125Z" fill="#999999"/>
</svg>
